<?xml version="1.0" encoding="UTF-8" standalone="no"?><svg xmlns="http://www.w3.org/2000/svg" xmlns:xlink="http://www.w3.org/1999/xlink" fill="#d73cbe" height="237.4" preserveAspectRatio="xMidYMid meet" version="1" viewBox="0.0 0.0 237.4 237.4" width="237.4" zoomAndPan="magnify"><g id="change1_1"><path d="M160.4,182.9c-1.4,3-16.8,10.5-34.4,7.9c-18.1-2.7-34.6-16.6-34.6-39.9c0-23.2,0-45.7,0-45.7H77V86.1 c0,0,12.2-3.6,19.8-14.6c6.6-9.6,8-19.9,8.5-23.8c0.1-1,0.9-1.7,1.9-1.7h20.7V83h29.1v22.3h-29.1c0,0,0,28.1,0,41.9 c0,14.6,4.2,20.8,25.4,15.2C153.3,162.4,158.8,177.8,160.4,182.9z"/><path d="M118.7,237.4C53.3,237.4,0,184.2,0,118.7C0,53.3,53.3,0,118.7,0s118.7,53.3,118.7,118.7 C237.4,184.2,184.2,237.4,118.7,237.4z M118.7,6.5C56.8,6.5,6.5,56.8,6.5,118.7c0,61.9,50.3,112.2,112.2,112.2 s112.2-50.3,112.2-112.2C230.9,56.8,180.6,6.5,118.7,6.5z"/></g></svg>